<?xml version="1.0" encoding="utf-8"?>
<!-- Generator: Adobe Illustrator 17.1.0, SVG Export Plug-In . SVG Version: 6.00 Build 0)  -->
<!DOCTYPE svg PUBLIC "-//W3C//DTD SVG 1.1//EN" "http://www.w3.org/Graphics/SVG/1.1/DTD/svg11.dtd">
<svg version="1.1" id="Layer_1" xmlns="http://www.w3.org/2000/svg" xmlns:xlink="http://www.w3.org/1999/xlink" x="0px" y="0px"
	 viewBox="0 0 841.9 595.3" enable-background="new 0 0 841.9 595.3" xml:space="preserve">
<g>
	<path fill="#FFF200" d="M467.4,221.3c-1.1-0.2-2.2-0.3-3.4-0.3h-22.5c-7.8,0-11.8,3.4-11.8,9.4c0,6.1,4,9.4,11.8,9.4h21.2
		c10.6,0,18.9,8.2,18.9,19.5c0,11.1-8.4,19.6-18.9,19.6h-17.3v-16.6c0-6.5-2.9-9.9-7.9-9.9c-5.1,0-7.9,3.4-7.9,9.9v24.9
		c0,0.2,0,0.4,0,0.7c0,0.2,0,0.3,0,0.4c0,1.7,0.3,3.1,0.9,4.4c1,2.4,2.8,3.8,5.3,4.3c1.6,0.5,3.4,0.8,5.6,0.8h22.5
		c1.3,0,2.5-0.1,3.6-0.3c19-2.4,33.2-18.5,33.2-38.4C500.8,239.2,486.4,223.5,467.4,221.3z"/>
	<g>
		<path fill="#FFF200" d="M320.3,221c-6.5,0-12.3,2.6-17.5,7.9c-5.2-5.3-11-7.9-17.4-7.9c-15.7,0-26.6,8.1-26.6,27v2.1v34.8v0.9
			c0,7.9,3.3,11.9,9.1,11.9c5.9,0,9.1-4.1,9.1-11.9v-0.9v-34.8v-0.5c0-6.9,3-10.4,8.3-10.4c5.4,0,6.8,3.7,8.4,10.4
			c0.6,2.8,3.3,6.9,9.1,6.9c5.9,0,8.5-4.1,9.1-6.9c1.5-6.7,2.9-10.4,8.4-10.4c5.3,0,8.3,3.5,8.3,10.4v0.5v34.8v0.9
			c0,7.9,3.3,11.9,9.1,11.9c5.9,0,9.1-4.1,9.1-11.9v-0.9v-34.8v-1.8C346.9,229.5,335.8,221,320.3,221z"/>
		<circle fill="#FFF200" cx="302.8" cy="277.1" r="8"/>
	</g>
	<g>
		<path fill="#FFF200" d="M347.4,306.8c-5.5,0.7-10.5,5.2-14.5,8.8c-6.7,6.1-12.1,13.2-17.5,20.5c-1,1.4,1.3,2.7,2.3,1.3
			c7.3-9.9,15.4-21.1,26.7-26.9c1-0.5,5.8-2.6,5,0.3c-0.7,2.7-3.8,5.2-5.7,7.2c-6.3,6.8-13.9,12-21.4,17.2c-3.7,2.5-7.9,5.2-10,9.2
			c-1.5,2.8,0,5.3,3.2,5.1c3.3-0.2,6.7-2.1,9.6-3.6c4.5-2.4,9.3-5.5,12-9.9c0.3-0.5,0.2-1.2-0.2-1.6c-1.8-1.6-4.3-1.8-6.8-1.3
			c1.9-1.3,3.7-2.6,5.5-4c4.3-3.3,8.1-7.1,11.8-11.1c2-2.2,4.4-4.6,4.8-7.6C352.5,307.7,349.5,306.6,347.4,306.8z M334,335.7
			c-3.5,4.8-9.8,8.1-15.2,10.2c-1.1,0.4-2.2,0.8-3.3,1c-1.9,0.4-1.1-1-0.4-2.1c1.5-2.3,3.9-4.1,6.2-5.8c2-0.8,3.9-1.6,5.9-2.3
			C329,336.1,332,335,334,335.7z"/>
		<path fill="#FFF200" d="M359.2,333.8c-2.7-0.5-5.3,1.4-7.4,2.8c-2.7,1.8-5.3,3.5-8.2,4.9c-0.6,0.3-1.2,0.5-1.7,0.8
			c-0.2,0.1-0.5,0.2-0.7,0.2c0.4-0.9,1.2-1.8,1.8-2.5c1.4-1.8,3.3-3.6,3.9-5.8c0.2-0.6-0.2-1.5-0.9-1.6c-3.1-0.6-6,1.3-8.5,2.9
			c-4,2.5-8.2,4.9-12.2,7.4c-1.4,0.9-0.1,3.2,1.3,2.3c3.3-2.1,6.8-4.1,10.2-6.1c1.8-1.1,4.2-3.1,6.5-3.8c-2.4,3.2-7.6,8.9-2.9,9.9
			c2.4,0.5,6.2-2.2,8.2-3.3c1.5-0.8,2.8-1.7,4.2-2.7c0.9-0.7,2.4-1.9,3.9-2.6c-1.6,2.4-3.7,4.5-5.5,6.6c-0.3,0.3-0.6,0.6-0.9,1
			c-0.1-0.8-1-1.5-2-1.1c-11.1,5-22,10.6-31.2,18.7c-3.3,2.9-6.5,6.1-8.7,10c-0.9,1.6-2.5,5.6,0.5,6.4c4.1,1,9.2-3.1,12.2-5.3
			c5.2-3.7,10.1-8.1,15-12.2c5.4-4.5,10.8-9.2,15.6-14.3c3-3.1,6.8-6.8,8.5-10.8C360.3,335,360.1,334,359.2,333.8z M338.4,355.2
			c-4.3,3.7-8.7,7.2-13,10.8c-4.4,3.6-8.9,7.5-14.4,9.5c-1.6,0.6-1.8,0.5-1.3-1c0.4-1.3,1.3-2.5,2.1-3.7c2.5-3.6,6-6.6,9.4-9.3
			c8.2-6.6,17.7-11.4,27.3-15.7C345.3,349.1,341.9,352.2,338.4,355.2z"/>
		<path fill="#FFF200" d="M433.8,339.4c-3.8-0.2-7.4,1.4-10.9,2.8c-2.9,1.1-6.1,3.1-9.3,3.7c1.9-2.5,5.6-4,8.2-5.4
			c3.7-2.1,8.1-3.7,11-6.8c0.6-0.7,0.4-2-0.6-2.2c-3.8-0.9-6.6,1.1-10.3,1.4c-3.2,0.2-5.9-0.5-8.4,2c-1.2,1.2,0.7,3.1,1.9,1.9
			c1.9-2,4.8-1.1,7.3-1.3c2-0.2,3.8-1,5.6-1.4c-2.9,2-6.5,3.4-9.5,5.1c-3.4,1.8-7.4,4-8.7,7.9c-0.3,0.9,0.5,1.6,1.3,1.7
			c3.7,0.3,7-1.8,10.3-3.2c3.7-1.6,8-3.6,12.2-3.5C435.5,342.1,435.5,339.5,433.8,339.4z"/>
		<path fill="#FFF200" d="M432.8,343.6c-0.5-0.3-1.2-0.4-1.8-0.4c-0.8-0.1-1.6,0.5-1.6,1.4c0,0.3,0.1,0.6,0.3,0.8c0,0,0,0.1,0,0.1
			c0,0,0,0.1,0,0.1c0.2,0.7,0.9,1,1.6,0.9c0.5-0.1,1-0.2,1.4-0.4c0.3-0.2,0.6-0.5,0.7-0.9C433.6,344.5,433.4,343.9,432.8,343.6z
			 M429.7,345.3C429.7,345.3,429.7,345.3,429.7,345.3L429.7,345.3z"/>
		<path fill="#FFF200" d="M490.1,305.9c-7.9,5.1-13.9,12.7-18.9,21c-7.1,5.8-14.3,11.7-21.9,16.9c-2,1.4-4.1,2.6-6.2,4
			c-2.7,1.8-1.7-2.2-1.3-3.7c1.3-4.6,3.8-8.9,6.3-12.9c2.8-4.4,6.3-8.4,9.5-12.5c3.4-4.4,6.5-8.9,10.5-12.7c1.2-1.2-0.6-3-1.9-1.9
			c-4.1,4-7.4,8.7-10.9,13.3c-4,5.2-8.2,10.1-11.5,15.8c-2.2,3.8-4.8,8.7-5.2,13.1c-0.2,1.7,0.2,3.1,1.4,4.3
			c1.3,1.3,3.1,0.3,4.3-0.5c8.2-5.2,15.8-11.2,23.4-17.2c-1.5,2.8-2.9,5.7-4.2,8.5c-0.7,1.5,1.5,2.9,2.3,1.3
			c2.2-4.6,4.6-9.4,7.3-14.1c7.3-5.7,15.5-12.4,18.8-21.2C492.5,306.3,491.1,305.3,490.1,305.9z M478.1,321.2c2.7-3.6,5.7-7,9.1-9.9
			C484.8,315.1,481.5,318.3,478.1,321.2z"/>
		<path fill="#FFF200" d="M487.8,338c-3.7-3.1-7.7-1.2-11.7-0.8c1-0.5,2-0.9,3-1.3c0.9-0.3,3.6-1.3,5.1-1.2c0.4,1,1.8,1.5,2.3,0.3
			c0-0.1,0.1-0.2,0.1-0.3c0.6-0.7,0.5-1.5-0.3-2.1c-1.7-1.2-5.4,0-7.2,0.5c-2.9,0.8-5.7,2.2-8,4.2c-0.7,0.6-0.3,2,0.6,2.2
			c4,1,9.4-2.2,13.1-0.3c-1.4,1.2-4,1.5-5.6,1.9c-2.5,0.6-4.9,1.3-7.4,2.1c-6.8,2.2-13.6,4.3-19.8,7.8c-1.5,0.8-0.2,3.1,1.3,2.3
			c7.1-4,14.9-6.1,22.6-8.7c3.6-1.2,9.9-1.1,11.9-5C488.2,339.1,488.3,338.4,487.8,338z"/>
		<path fill="#FFF200" d="M513.7,340c-3.2,1.4-6.5,3.2-10.1,3.4c-3.4,0.2-0.9-3.1,0.2-4.3c1.6-1.7,3.5-2.9,5.2-4.5
			c0.6-0.6,0.4-1.4-0.1-1.9c0-0.6-0.2-1.2-0.9-1.5c-4.2-1.8-9.9,2.1-13,4.5c-2.8,2.1-8,6.5-6.4,10.6c0.3,0.7,0.9,1.1,1.6,0.9
			c3.2-0.9,6-2.6,8.7-4.6c0.1,0.9,0.5,1.7,1.5,2.5c3.7,2.9,10.4-1.2,13.9-2.7C516,341.9,515.3,339.4,513.7,340z M497.3,337.4
			c2.1-1.5,5.9-4.1,8.9-3.8c-4.8,3.8-9.4,8.5-15.1,10.7C491.6,341.5,495.6,338.6,497.3,337.4z"/>
		<path fill="#FFF200" d="M534.7,336.2c-3.2,1.1-6.4,2.2-9.6,3.2c-2.7,0.8-6.3,2.2-9.4,2c2.4-3.8,8.5-7.6,12.7-7
			c1.7,0.2,2.4-2.3,0.7-2.5c-6.2-0.9-14.3,4.4-16.6,10.1c-0.3,0.7,0.3,1.4,0.9,1.6c3.1,1,6.6-0.1,9.7-0.9c4.2-1.1,8.2-2.6,12.3-3.9
			C537,338.2,536.3,335.7,534.7,336.2z"/>
		<path fill="#FFF200" d="M551.8,310.2c-7.3,12.2-16.3,23.5-23.4,35.8c-1.7,2.2-3,4.5-3.8,7.2c-0.4,1.4,1.7,2.4,2.4,1
			c1.2-2.4,2.5-4.8,3.8-7.1c3.4-4.2,8.3-7.5,12.9-10c1.2-0.6,2.6-1.4,4-1.5c1.6-0.2-0.5,4.5-0.9,5.1c-1.8,3.1-4.6,5.6-5.3,9.3
			c-0.3,1.7,2.2,2.4,2.5,0.7c1-5.1,6.2-8.1,6.8-13.5c0.4-3.7-2.1-4.8-5.3-3.8c-3.5,1.1-6.7,3.2-9.7,5.5c6-9.2,12.6-18,18.2-27.4
			C554.9,310.1,552.6,308.8,551.8,310.2z"/>
		<path fill="#FFF200" d="M568,329.7c-5.6-3.4-13.5,3.6-15.7,8.4c-0.1,0.2-0.2,0.4-0.2,0.5c-0.4,0.3-0.8,0.6-1.2,1
			c-0.8,0.9-0.1,2.1,0.8,2.2c0.2,1.2,0.9,2.2,2.2,2.7c2.7,1.1,6.6-1.1,9.1-1.7c1.6-0.4,0.9-3-0.7-2.5c-1.8,0.5-3.6,1.2-5.5,1.6
			c-0.5,0.1-2.2,0.6-2.5-0.1c-0.2-0.5-0.2-1.1,0-1.7c4.5-3.2,11.3-3.1,14.1-8.7C568.7,330.8,568.6,330.1,568,329.7z M556.6,336.4
			c2.2-2.6,5.8-5.4,8.8-4.9C563.3,334.1,559.8,335.1,556.6,336.4z"/>
		<path fill="#FFF200" d="M594.5,323.4c-10.3,5.9-18,14.8-26.1,23.2c0.8-3,1.7-6.1,2.3-9.2c0.3-1.5,0.5-3,0.7-4.4
			c0.1-0.7,0.3-1.4,0.4-2.1c0.2-1.2,0.6-0.9-0.4-0.5c1.6-0.6,0.9-3.1-0.7-2.5c-2.1,0.8-2,5.6-2.3,7.4c-0.8,5.1-2.7,10-3.5,15.1
			c-0.2,1.2,1.2,2.3,2.2,1.3c9.2-9.1,17.3-19.4,28.7-26C597.3,324.8,596,322.6,594.5,323.4z"/>
		<path fill="#FFF200" d="M420.2,317.2c-3-11-18.5-7.7-29.4-3.4c1-1.9,2-3.8,3-5.7c0.8-1.6-1.6-2.9-2.3-1.4c-1.5,3-3.1,5.9-4.7,8.8
			c-1.7,0.8-3.2,1.5-4.4,2.2c-1.5,0.9-0.2,3.2,1.4,2.3c0.2-0.1,0.4-0.2,0.7-0.4c-5,9-10.1,18-14,27.6c-2,0.6-3.9,1.2-5.9,1.8
			c-1.7,0.5-1,3.1,0.7,2.6c13.6-4.1,27.5-8.2,40.2-14.7C412.3,333.5,422.7,326.2,420.2,317.2z M398.9,337.1
			c-8.1,3.6-16.5,6.5-25,9.1c4.2-9.9,9.6-19.1,14.8-28.5c9.8-4.2,27.8-9.5,29,1.3C418.7,328.3,405.8,334,398.9,337.1z"/>
	</g>
	<g>
		<path fill="#FFF200" d="M409.9,266.2h-13.9c-5.7,0-8.6-2.4-8.6-6.9c0-4.4,2.9-6.9,8.6-6.9h13.9c5.7,0,8.6,2.5,8.6,6.9
			C418.5,263.8,415.5,266.2,409.9,266.2z"/>
		<path fill="#FFF200" d="M412.4,278.9h-30.5h-0.5c-6.7-0.1-10.2-3.3-10.4-6.7c-0.2-3.5,2-5.7,4.2-6.2c0.1,0,2.9-0.7,3.8-1.1
			c0.9-0.4,1.6-1.3,2.1-2.2c0.1,0,0.1,0,0.2,0l-0.1,0c0.6-1,0.9-2.1,0.9-3.3c0-2.3-1.1-4.7-3.1-5.6c-0.9-0.4-3.7-1-3.7-1.1
			c-2.3-0.4-4.4-2.8-4.2-7c0.2-4.1,4.6-6.1,10.2-6.1h0.5h30.5c7.9,0,11.9-3.3,11.9-9.1c0-5.9-4.1-9.1-11.9-9.1h-30.5h-1.8
			c-18.8,0-27.3,11.1-27.3,26.6c0,4.1,1.1,7.9,3.2,11.5c-2.1,3.6-3.2,7.4-3.2,11.5c0,15.6,8.6,26.6,27.3,26.6h1.8h30.5
			c7.9,0,11.9-3.7,11.9-9.7C424.1,282.2,420.3,278.9,412.4,278.9z"/>
		<g>
			<path fill="#FFF200" d="M413.8,199.5c-0.7-1.9-3.2-2.8-6.3-2.6c0.4,0.7,1.9,4.2,0.3,7.5c-0.8,1.7-2.6,3.5-5.8,4.7
				c1.5-0.1,3.1-0.4,4.7-1C411.7,206.1,414.9,202.3,413.8,199.5z"/>
			<path fill="#FFF200" d="M407,196.9c-1.3,0.1-2.7,0.5-4.2,1c-5,1.9-8.2,5.7-7.1,8.5c0.7,1.9,3.1,2.8,6.1,2.7
				C401.7,208.2,400.1,199.9,407,196.9z"/>
			<path fill="#FFF200" d="M401.9,209.1c0.1,0,0.1-0.1,0.2-0.1C402,209.1,401.9,209.1,401.9,209.1
				C401.9,209.1,401.9,209.1,401.9,209.1z"/>
			<path fill="#FFF200" d="M407.5,196.7c-0.2,0.1-0.3,0.1-0.4,0.2c0.2,0,0.3,0,0.5,0C407.5,196.7,407.5,196.7,407.5,196.7z"/>
		</g>
		<g>
			<path fill="#FFF200" d="M372.5,204.3c-1.6-3.3-0.1-6.8,0.3-7.5c-3.1-0.2-5.6,0.8-6.3,2.6c-1.1,2.8,2.1,6.6,7.1,8.5
				c1.6,0.6,3.2,1,4.7,1C375,207.8,373.3,206.1,372.5,204.3z"/>
			<path fill="#FFF200" d="M377.4,197.9c-1.4-0.5-2.8-0.9-4.2-1c6.9,3,5.3,11.4,5.1,12.2c3,0.1,5.4-0.8,6.1-2.7
				C385.6,203.6,382.4,199.8,377.4,197.9z"/>
			<path fill="#FFF200" d="M378.4,209.1C378.4,209.1,378.4,209.1,378.4,209.1c-0.1-0.1-0.1-0.1-0.2-0.1
				C378.3,209.1,378.4,209.1,378.4,209.1z"/>
			<path fill="#FFF200" d="M372.8,196.7c0,0,0,0.1-0.1,0.1c0.2,0,0.3,0,0.5,0C373.1,196.8,373,196.7,372.8,196.7z"/>
		</g>
	</g>
</g>
</svg>
